<svg width="24" height="24" viewBox="0 0 221 221" fill="none" xmlns="http://www.w3.org/2000/svg">
	<path d="M157.168 62.552H63.8253C60.3018 62.552 57.4429 65.4378 57.4429 68.9344V152.039C57.4429 155.562 60.3286 158.393 63.8253 158.393H157.141C160.637 158.393 163.495 155.535 163.495 152.039V68.9622C163.523 65.4387 160.665 62.5527 157.168 62.5527L157.168 62.552ZM158.084 117.603L144.071 102.675C143.544 102.148 142.878 101.842 142.156 101.842C141.296 101.787 140.686 102.065 140.159 102.592L122.04 120.406L96.6234 88.6349C96.1239 88.0243 95.4302 87.663 94.6815 87.6079C93.8487 87.5799 93.127 87.8572 92.5724 88.4127L62.9102 117.908V68.9616C62.9102 68.4621 63.3266 68.0458 63.8261 68.0458H157.141C157.641 68.0458 158.057 68.4902 158.057 68.9616V117.603L158.084 117.603Z" fill="currentColor"/>
	<path d="M133.527 89.717C133.527 95.7542 128.633 100.649 122.594 100.649C116.556 100.649 111.662 95.7542 111.662 89.717C111.662 83.6789 116.556 78.7842 122.594 78.7842C128.633 78.7842 133.527 83.6789 133.527 89.717Z" fill="currentColor"/>
	<path d="M178.144 177.43V180.284H42.8213V177.094C42.8213 175.002 41.1392 173.374 39.0745 173.374H35.9123V47.6244H39.0745C41.1599 47.6244 42.8213 45.9218 42.8213 43.8776V40.7155H178.116V43.9047C178.116 45.962 179.819 47.6515 181.891 47.6515H185.053V173.401H181.891C179.867 173.401 178.144 175.016 178.144 177.093V177.429L178.144 177.43ZM195.71 47.6249C197.795 47.6249 199.457 45.9223 199.457 43.8781V30.0864C199.457 28.0074 197.787 26.3396 195.71 26.3396H181.892C179.826 26.3396 178.117 27.9955 178.117 30.0864V33.2485H42.822V30.0864C42.822 28.0074 41.1529 26.3396 39.0752 26.3396H25.2844C23.2054 26.3396 21.5376 28.0087 21.5376 30.0864V43.9052C21.5376 45.9495 23.2001 47.6519 25.2844 47.6519H28.4465V173.402H25.2844C23.2254 173.402 21.5376 175.023 21.5376 177.094V190.94C21.5376 192.997 23.2129 194.659 25.2844 194.659H39.1032C41.1757 194.659 42.8499 192.997 42.8499 190.94V187.75H178.145V190.94C178.145 193.011 179.861 194.66 181.92 194.66H195.739C197.811 194.66 199.485 192.998 199.485 190.94L199.485 177.094C199.485 175.002 197.802 173.374 195.738 173.374H192.576V47.6242L195.71 47.6249Z" fill="currentColor" stroke="currentColor" stroke-width="2"/>
</svg>
